<svg xmlns="http://www.w3.org/2000/svg" viewBox="0 0 1280 800" font-family="Cairo,'Segoe UI',Tahoma,sans-serif">
  <rect width="1280" height="800" fill="#fbfaf6"/>
  <!-- top bar -->
  <line x1="0" y1="64" x2="1280" y2="64" stroke="#e7e3d9"/>
  <circle cx="1262" cy="32" r="13" fill="#0b7f92"/>
  <text x="1240" y="38" font-size="16" font-weight="700" fill="#13283b" text-anchor="end">عبقري — لوحة القيادة</text>
  <rect x="500" y="15" width="250" height="34" rx="17" fill="#f1efe8"/>
  <text x="736" y="37" font-size="13" fill="#8a9aa8" text-anchor="end">بحث…</text>
  <circle cx="42" cy="32" r="15" fill="#e2f1f2"/>
  <text x="42" y="37" font-size="12" font-weight="700" fill="#0b7f92" text-anchor="middle">أم</text>
  <!-- sidebar (right) -->
  <rect x="1104" y="65" width="176" height="735" fill="#f4f2ec"/>
  <rect x="1112" y="88" width="160" height="40" rx="10" fill="#e2f1f2"/>
  <circle cx="1256" cy="108" r="3.5" fill="#0b7f92"/>
  <text x="1240" y="113" font-size="14" font-weight="700" fill="#0b7f92" text-anchor="end">الرئيسية</text>
  <circle cx="1256" cy="160" r="3.5" fill="#66788a"/>
  <text x="1240" y="165" font-size="14" fill="#3d5266" text-anchor="end">الطلبات</text>
  <circle cx="1256" cy="212" r="3.5" fill="#66788a"/>
  <text x="1240" y="217" font-size="14" fill="#3d5266" text-anchor="end">التقارير</text>
  <circle cx="1256" cy="264" r="3.5" fill="#66788a"/>
  <text x="1240" y="269" font-size="14" fill="#3d5266" text-anchor="end">التنبيهات</text>
  <circle cx="1256" cy="316" r="3.5" fill="#66788a"/>
  <text x="1240" y="321" font-size="14" fill="#3d5266" text-anchor="end">الإعدادات</text>
  <!-- KPI tiles -->
  <g>
  <rect x="824" y="96" width="250" height="112" rx="14" fill="#ffffff" stroke="#e7e3d9"/>
  <text x="1054" y="130" font-size="13" fill="#66788a" text-anchor="end">طلبات اليوم</text>
  <text x="1054" y="176" font-size="30" font-weight="700" fill="#13283b" text-anchor="end" font-family="Inter,Cairo,sans-serif">128</text>
  <rect x="844" y="148" width="56" height="24" rx="12" fill="#e6f4ec"/>
  <text x="872" y="164" font-size="11" font-weight="700" fill="#0a7d4f" text-anchor="middle" font-family="Inter,Cairo,sans-serif">+12%</text>
  <rect x="558" y="96" width="250" height="112" rx="14" fill="#ffffff" stroke="#e7e3d9"/>
  <text x="788" y="130" font-size="13" fill="#66788a" text-anchor="end">داخل نطاق الخدمة</text>
  <text x="788" y="176" font-size="30" font-weight="700" fill="#13283b" text-anchor="end" font-family="Inter,Cairo,sans-serif">94%</text>
  <rect x="578" y="148" width="56" height="24" rx="12" fill="#e6f4ec"/>
  <text x="606" y="164" font-size="11" font-weight="700" fill="#0a7d4f" text-anchor="middle" font-family="Inter,Cairo,sans-serif">+3%</text>
  <rect x="292" y="96" width="250" height="112" rx="14" fill="#ffffff" stroke="#e7e3d9"/>
  <text x="522" y="130" font-size="13" fill="#66788a" text-anchor="end">متوسط زمن الإغلاق</text>
  <text x="522" y="176" font-size="30" font-weight="700" fill="#13283b" text-anchor="end" font-family="Inter,Cairo,sans-serif">2.3ي</text>
  <rect x="312" y="148" width="56" height="24" rx="12" fill="#e6f4ec"/>
  <text x="340" y="164" font-size="11" font-weight="700" fill="#0a7d4f" text-anchor="middle" font-family="Inter,Cairo,sans-serif">-18%</text>
  <rect x="26" y="96" width="250" height="112" rx="14" fill="#ffffff" stroke="#e7e3d9"/>
  <text x="256" y="130" font-size="13" fill="#66788a" text-anchor="end">شكاوى متكررة</text>
  <text x="256" y="176" font-size="30" font-weight="700" fill="#13283b" text-anchor="end" font-family="Inter,Cairo,sans-serif">7</text>
  <rect x="46" y="148" width="56" height="24" rx="12" fill="#e6f4ec"/>
  <text x="74" y="164" font-size="11" font-weight="700" fill="#0a7d4f" text-anchor="middle" font-family="Inter,Cairo,sans-serif">-4</text>
  <!-- weekly chart card -->
  <rect x="24" y="232" width="660" height="290" rx="14" fill="#ffffff" stroke="#e7e3d9"/>
  <text x="664" y="268" font-size="15" font-weight="700" fill="#13283b" text-anchor="end">حجم الطلبات الأسبوعي</text>
  <text x="664" y="289" font-size="12" fill="#8a9aa8" text-anchor="end">مقارنة بالأسبوع السابق</text>
  <line x1="48" y1="330" x2="660" y2="330" stroke="#efece4"/>
  <line x1="48" y1="385" x2="660" y2="385" stroke="#efece4"/>
  <line x1="48" y1="440" x2="660" y2="440" stroke="#efece4"/>
  <line x1="48" y1="495" x2="660" y2="495" stroke="#efece4"/>
  <rect x="56" y="431" width="46" height="64" rx="6" fill="#c5d7db"/>
  <rect x="142" y="405" width="46" height="90" rx="6" fill="#c5d7db"/>
  <rect x="228" y="417" width="46" height="78" rx="6" fill="#c5d7db"/>
  <rect x="314" y="375" width="46" height="120" rx="6" fill="#c5d7db"/>
  <rect x="400" y="393" width="46" height="102" rx="6" fill="#c5d7db"/>
  <rect x="486" y="345" width="46" height="150" rx="6" fill="#0b7f92"/>
  <rect x="572" y="363" width="46" height="132" rx="6" fill="#c5d7db"/>
  <text x="509" y="337" font-size="12" font-weight="700" fill="#0b7f92" text-anchor="middle" font-family="Inter,Cairo,sans-serif">150</text>
  <g font-size="11" fill="#8a9aa8" text-anchor="middle">
  <text x="79" y="518">السبت</text><text x="165" y="518">الأحد</text><text x="251" y="518">الاثنين</text><text x="337" y="518">الثلاثاء</text><text x="423" y="518">الأربعاء</text><text x="509" y="518">الخميس</text><text x="595" y="518">الجمعة</text>
  </g>
  <!-- SLA donut card -->
  <rect x="700" y="232" width="380" height="290" rx="14" fill="#ffffff" stroke="#e7e3d9"/>
  <text x="1060" y="268" font-size="15" font-weight="700" fill="#13283b" text-anchor="end">معدل الالتزام باتفاقية الخدمة</text>
  <circle cx="890" cy="392" r="72" fill="none" stroke="#e7e3d9" stroke-width="18"/>
  <circle cx="890" cy="392" r="72" fill="none" stroke="#0b7f92" stroke-width="18" stroke-linecap="round" stroke-dasharray="425.3 427.1" transform="rotate(-90 890 392)"/>
  <text x="890" y="400" font-size="28" font-weight="700" fill="#13283b" text-anchor="middle" font-family="Inter,Cairo,sans-serif">94%</text>
  <text x="890" y="424" font-size="12" fill="#8a9aa8" text-anchor="middle">ضمن النطاق</text>
  <rect x="1010" y="470" width="12" height="12" rx="3" fill="#0b7f92"/>
  <text x="1000" y="481" font-size="12" fill="#3d5266" text-anchor="end">في الموعد</text>
  <rect x="810" y="470" width="12" height="12" rx="3" fill="#e7e3d9"/>
  <text x="800" y="481" font-size="12" fill="#3d5266" text-anchor="end">متأخرة</text>
  <!-- complaints table card -->
  <rect x="24" y="546" width="1056" height="222" rx="14" fill="#ffffff" stroke="#e7e3d9"/>
  <text x="1060" y="582" font-size="15" font-weight="700" fill="#13283b" text-anchor="end">أعلى الشكاوى تكرارًا</text>
  <g font-size="12" fill="#8a9aa8">
  <text x="1060" y="612" text-anchor="end">النوع</text>
  <text x="880" y="612" text-anchor="end">العدد</text>
  <text x="740" y="612" text-anchor="end">الاتجاه</text>
  <text x="560" y="612" text-anchor="end">الحالة</text>
  </g>
  <text x="1060" y="652" font-size="14" font-weight="600" fill="#13283b" text-anchor="end">تأخر صيانة الإنارة</text>
  <text x="880" y="652" font-size="14" fill="#13283b" text-anchor="end" font-family="Inter,Cairo,sans-serif">34</text>
  <text x="740" y="652" font-size="13" fill="#b45309" text-anchor="end">▲</text>
  <rect x="464" y="635" width="96" height="26" rx="13" fill="#fdf3e3"/>
  <text x="512" y="652" font-size="12" fill="#b45309" text-anchor="middle">قيد المعالجة</text>
  <line x1="40" y1="674" x2="1064" y2="674" stroke="#f0ede5"/>
  <text x="1060" y="702" font-size="14" font-weight="600" fill="#13283b" text-anchor="end">تكرار انقطاع المياه</text>
  <text x="880" y="702" font-size="14" fill="#13283b" text-anchor="end" font-family="Inter,Cairo,sans-serif">21</text>
  <text x="740" y="702" font-size="13" fill="#b45309" text-anchor="end">▲</text>
  <rect x="464" y="685" width="96" height="26" rx="13" fill="#fdeaea"/>
  <text x="512" y="702" font-size="12" fill="#b23b3b" text-anchor="middle">مُصعَّدة</text>
  <line x1="40" y1="724" x2="1064" y2="724" stroke="#f0ede5"/>
  <text x="1060" y="752" font-size="14" font-weight="600" fill="#13283b" text-anchor="end">إسناد عقود التشغيل</text>
  <text x="880" y="752" font-size="14" fill="#13283b" text-anchor="end" font-family="Inter,Cairo,sans-serif">12</text>
  <text x="740" y="752" font-size="13" fill="#0a7d4f" text-anchor="end">▼</text>
  <rect x="464" y="735" width="96" height="26" rx="13" fill="#e6f4ec"/>
  <text x="512" y="752" font-size="12" fill="#0a7d4f" text-anchor="middle">مغلقة</text>
  </g>
</svg>